<?xml version="1.0" standalone="no"?>
<!DOCTYPE svg PUBLIC "-//W3C//DTD SVG 20010904//EN"
 "http://www.w3.org/TR/2001/REC-SVG-20010904/DTD/svg10.dtd">
<svg version="1.0" xmlns="http://www.w3.org/2000/svg"
 width="512.000000pt" height="512.000000pt" viewBox="0 0 512.000000 512.000000"
 preserveAspectRatio="xMidYMid meet">

<g transform="translate(0.000000,512.000000) scale(0.100000,-0.100000)"
fill="#000000" stroke="none">
<path d="M696 5109 c-151 -36 -270 -167 -296 -326 -13 -80 -13 -4368 0 -4448
22 -134 102 -239 228 -298 l67 -32 1866 0 1865 0 76 38 c122 60 197 161 218
294 13 78 13 4368 0 4446 -21 133 -96 234 -218 294 l-76 38 -1845 2 c-1092 0
-1862 -3 -1885 -8z m3634 -2549 l0 -2170 -1770 0 -1770 0 0 2170 0 2170 1770
0 1770 0 0 -2170z"/>
<path d="M3265 4314 c-16 -9 -271 -256 -565 -550 l-535 -534 -140 141 c-77 78
-154 147 -172 155 -69 30 -179 9 -224 -42 -48 -55 -64 -151 -35 -217 7 -18
119 -136 247 -264 201 -198 239 -232 272 -238 59 -11 124 0 165 29 20 14 306
294 634 623 413 413 602 609 613 635 40 99 2 214 -87 257 -53 25 -129 27 -173
5z"/>
<path d="M1355 2165 c-5 -2 -22 -6 -37 -9 -65 -15 -137 -112 -138 -187 0 -59
45 -135 98 -167 l47 -27 1040 0 c1022 0 1041 0 1074 20 19 11 48 37 64 58 26
31 32 49 35 101 7 102 -46 179 -143 205 -28 8 -344 11 -1035 10 -547 0 -999
-2 -1005 -4z"/>
<path d="M1292 1354 c-123 -61 -147 -212 -48 -310 64 -64 77 -65 663 -62 565
3 538 0 601 72 84 96 56 247 -54 302 -37 18 -70 19 -574 22 l-535 2 -53 -26z"/>
</g>
</svg>
